<svg width="23" height="30" viewBox="0 0 23 30" fill="none" xmlns="http://www.w3.org/2000/svg">
<path d="M14.584 30H8.37299C7.33556 30 6.49165 29.3472 6.49165 28.5448V17.7086H2.86804C1.83061 17.7086 0.986694 17.0556 0.986694 16.2534V11.61C0.986694 10.8076 1.83061 10.1548 2.86804 10.1548H6.49165V7.82959C6.49165 5.52406 7.42759 3.56255 9.19797 2.15744C10.9763 0.745926 13.4616 0 16.3851 0L21.1219 0.0059509C22.1576 0.00732422 23 0.660095 23 1.46118V5.7724C23 6.57486 22.1564 7.22763 21.1193 7.22763L17.93 7.22855C16.9574 7.22855 16.7097 7.37938 16.6568 7.42561C16.5695 7.50229 16.4656 7.71904 16.4656 8.31757V10.1546H20.8796C21.2119 10.1546 21.5338 10.218 21.8105 10.3374C22.4073 10.5954 22.7784 11.0831 22.7784 11.6103L22.776 16.2536C22.776 17.0556 21.9321 17.7084 20.8947 17.7084H16.4656V28.5448C16.4656 29.3472 15.6214 30 14.584 30ZM8.76536 28.2413H14.1916V16.9212C14.1916 16.3854 14.7553 15.9496 15.4477 15.9496H20.5023L20.5044 11.9135H15.4474C14.755 11.9135 14.1916 11.4777 14.1916 10.9419V8.31757C14.1916 7.63046 14.2819 6.84906 14.9524 6.26175C15.7625 5.55176 17.0394 5.46982 17.9294 5.46982L20.7263 5.4689V1.76422L16.3833 1.75873C11.685 1.75873 8.76536 4.08508 8.76536 7.82959V10.9419C8.76536 11.4775 8.20196 11.9135 7.50955 11.9135H3.2604V15.9496H7.50955C8.20196 15.9496 8.76536 16.3854 8.76536 16.9212V28.2413ZM21.1175 1.76468H21.1178H21.1175Z" fill="white"/>
</svg>
