<svg width="39" height="31" viewBox="0 0 39 31" fill="none" xmlns="http://www.w3.org/2000/svg">
<path d="M27.8762 0.511719H10.3465C4.64137 0.511719 0 4.09606 0 8.50194V22.0396C0 26.4453 4.64137 30.0296 10.3465 30.0296H27.8765C33.5814 30.0296 38.2227 26.4453 38.2227 22.0396V8.50194C38.2227 4.09606 33.5814 0.511719 27.8762 0.511719V0.511719ZM35.982 22.0396C35.982 25.4911 32.3458 28.2991 27.8762 28.2991H10.3465C5.87694 28.2991 2.24078 25.4911 2.24078 22.0396V8.50194C2.24078 5.05025 5.87694 2.24218 10.3465 2.24218H27.8765C32.3458 2.24218 35.982 5.05025 35.982 8.50194V22.0396Z" fill="white"/>
<path d="M19.1113 7.1996C13.3484 7.1996 8.66003 10.8202 8.66003 15.2707C8.66003 19.7211 13.3484 23.3417 19.1113 23.3417C24.8742 23.3417 29.5625 19.7211 29.5625 15.2707C29.5625 10.8202 24.8742 7.1996 19.1113 7.1996ZM19.1113 21.6113C14.5842 21.6113 10.9008 18.767 10.9008 15.2707C10.9008 11.7746 14.5842 8.93006 19.1113 8.93006C23.6386 8.93006 27.3217 11.7746 27.3217 15.2707C27.3217 18.767 23.6386 21.6113 19.1113 21.6113Z" fill="white"/>
<path d="M29.8125 4.33318C28.1094 4.33318 26.7242 5.40312 26.7242 6.71808C26.7242 8.03327 28.1094 9.10322 29.8125 9.10322C31.5155 9.10322 32.901 8.03327 32.901 6.71808C32.901 5.40289 31.5155 4.33318 29.8125 4.33318ZM29.8125 7.37252C29.3453 7.37252 28.965 7.07886 28.965 6.71808C28.965 6.35708 29.3453 6.06364 29.8125 6.06364C30.2799 6.06364 30.6602 6.35708 30.6602 6.71808C30.6602 7.07886 30.2799 7.37252 29.8125 7.37252Z" fill="white"/>
</svg>
