<svg width="39" height="22" viewBox="0 0 39 22" fill="none" xmlns="http://www.w3.org/2000/svg">
<path d="M38.6471 0.382026C38.2665 0.0384337 37.6355 -0.0889855 37.0745 0.0639175L1.44029 9.60915C0.728387 9.80094 0.228693 10.266 0.135926 10.8229C0.0440488 11.3772 0.373622 11.915 0.991868 12.2245L6.08543 14.8019C6.5789 15.0517 7.21345 15.0785 7.74189 14.8718L18.7909 10.5529L10.1796 15.3191C9.77535 15.5429 9.5338 15.8999 9.5338 16.2738V20.6887C9.5338 21.1441 9.87078 21.5613 10.4132 21.7779C10.9564 21.9945 11.6126 21.973 12.1286 21.7208L15.9984 19.8181L19.8039 21.7414C20.1373 21.9108 20.5345 22 20.9352 22C21.0706 22 21.2067 21.9897 21.3406 21.969C21.875 21.8864 22.3477 21.6417 22.6379 21.2977L38.76 1.59207C39.0739 1.21267 39.0288 0.727156 38.6471 0.382026ZM20.8501 20.2271L16.9092 18.2352C16.635 18.0964 16.3191 18.0269 16.0035 18.0269C15.6946 18.0269 15.3855 18.0935 15.1149 18.2266L11.8112 19.851V16.523L27.0169 8.10692C27.6959 7.73103 27.8669 7.04693 27.4143 6.51572C26.9615 5.98451 26.0548 5.80503 25.3053 6.09809L7.03651 13.2391L2.72835 11.0591L35.5425 2.26937L20.8501 20.2271Z" fill="white"/>
</svg>
