<svg width="40" height="30" viewBox="0 0 40 30" fill="none" xmlns="http://www.w3.org/2000/svg">
<path d="M33.6597 4.25024C30.1586 1.54644 25.5047 0.0576172 20.553 0.0576172C20.5527 0.0576172 20.5516 0.0576172 20.5513 0.0576172C18.1023 0.0578424 15.7157 0.424024 13.4583 1.14625C11.2006 1.86848 9.17793 2.91275 7.44601 4.25024C3.94515 6.95382 2.01727 10.5485 2.01727 14.372C2.01727 16.6522 2.72969 18.9182 4.07959 20.9372L0.963954 27.8109C0.744367 28.2957 0.899799 28.8227 1.37047 29.186C1.6997 29.4404 2.13305 29.5756 2.57864 29.5756C2.76965 29.5756 2.9627 29.5508 3.15108 29.4999L12.0518 27.094C14.6662 28.1365 17.6004 28.6867 20.553 28.6867C25.5041 28.6867 30.1586 27.1976 33.6597 24.4941C37.1606 21.7905 39.0888 18.1958 39.0888 14.3723C39.0888 10.5485 37.1609 6.95382 33.6597 4.25024ZM32.0745 23.2698C28.9971 25.6467 24.9051 26.9553 20.553 26.9553C17.8906 26.9553 15.2456 26.4468 12.9039 25.4843C12.4793 25.31 11.9774 25.28 11.5269 25.4019L3.44037 27.5875L6.2708 21.3426C6.42856 20.9942 6.38949 20.6066 6.16378 20.2789C4.9177 18.471 4.25893 16.4284 4.25893 14.372C4.25893 11.0111 5.95381 7.85103 9.03124 5.47445C12.1084 3.0981 16.1998 1.78921 20.5516 1.78876H20.553C24.9054 1.78876 28.9971 3.09765 32.0745 5.47445C35.1522 7.85103 36.8471 11.0109 36.8471 14.372C36.8471 17.7332 35.1522 20.8933 32.0745 23.2698Z" fill="white"/>
<path d="M27.4416 15.6507C26.5889 14.9922 25.2014 14.9922 24.3487 15.6507L23.4161 16.3709C21.1004 15.3965 19.2264 13.9493 17.9643 12.161L18.8969 11.4407C19.7499 10.7823 19.7499 9.71073 18.8969 9.05223L16.3837 7.11143C15.5311 6.45293 14.1435 6.45293 13.2909 7.11143L11.2804 8.66398C10.1289 9.55331 10.0714 11.0822 11.1186 12.9692C12.0279 14.6076 13.6918 16.4083 15.804 18.0395C17.9162 19.6706 20.248 20.9556 22.3695 21.6578C23.5304 22.042 24.5863 22.2337 25.4988 22.2337C26.5069 22.2337 27.3398 21.9997 27.9443 21.5328L29.9547 19.98V19.9803C30.3679 19.6611 30.5954 19.2371 30.5954 18.786C30.5954 18.3347 30.3679 17.9106 29.9547 17.5917L27.4416 15.6507ZM26.3591 20.3086C26.0304 20.5624 25.0197 20.6514 23.2528 20.0667C21.387 19.4492 19.3046 18.2944 17.3892 16.8152C15.4739 15.3361 13.9788 13.7281 13.1792 12.2873C12.4218 10.9228 12.537 10.142 12.8657 9.88819L14.8376 8.36536L17.2732 10.2465L16.1058 11.1482C15.578 11.5558 15.4506 12.174 15.7891 12.6866C17.3239 15.0107 19.726 16.8657 22.7355 18.0509C23.3995 18.3124 24.2 18.2142 24.7278 17.8064L25.8951 16.9049L28.331 18.786L26.3591 20.3086Z" fill="white"/>
</svg>
